<svg width="596" height="222" viewBox="0 0 596 222" fill="none" xmlns="http://www.w3.org/2000/svg">
<path d="M312.63 120.394V153.894H327.4V117.612C327.4 104.019 322.37 95.0293 307.921 95.0293C299.252 95.0293 293.473 98.026 288.978 104.448C286.73 100.274 282.449 95.0293 272.603 95.0293C265.646 95.0293 259.76 98.2401 256.549 103.912V96.3136H241.779V153.894H256.549V123.926C256.549 115.15 258.154 106.909 268.001 106.909C276.67 106.909 277.205 114.08 277.205 120.394V153.894H291.974V123.926C291.974 115.15 293.58 106.909 303.426 106.909C312.095 106.909 312.63 114.08 312.63 120.394Z" fill="black"/>
<path d="M394.293 129.171C394.935 108.836 383.804 95.0293 366.038 95.0293C349.021 95.0293 337.141 107.765 337.141 124.89C337.141 141.479 347.951 155.285 366.466 155.285C382.092 155.285 390.547 145.76 393.651 137.197H378.453C375.456 142.228 370.854 143.833 366.359 143.833C359.402 143.833 352.553 139.017 351.804 129.171H394.293ZM365.931 105.839C372.138 105.839 378.988 109.264 379.309 119.003H352.018C353.195 109.371 360.366 105.839 365.931 105.839Z" fill="black"/>
<path d="M406.91 96.3136H398.776V106.481H406.91V138.375C406.91 149.827 409.479 153.894 422.643 153.894H433.452V143.298H428.957C423.713 143.298 421.68 142.121 421.68 136.234V106.481H433.667V96.3136H421.68V80.6879H406.91V96.3136Z" fill="black"/>
<path d="M480.161 131.846C480.161 140.194 476.201 145.224 466.997 145.224C460.361 145.224 457.043 141.8 457.043 137.626C457.043 131.204 463.679 129.278 480.161 127.565V131.846ZM481.445 146.723C481.659 149.505 481.98 152.074 482.408 153.894H496.001C494.93 149.077 494.288 143.94 494.288 134.843C494.288 129.599 494.502 122 494.502 120.18C494.502 100.702 483.372 94.8153 469.672 94.8153C454.903 94.8153 445.485 103.163 444.414 114.508H458.221C458.542 108.193 463.251 105.197 468.923 105.197C474.917 105.197 479.733 108.301 479.733 117.184V118.147C457.15 120.716 441.846 124.783 441.846 138.375C441.846 148.863 451.585 155.285 462.609 155.285C471.278 155.285 477.378 152.716 481.445 146.723Z" fill="black"/>
<path d="M509.268 96.3136H501.134V106.481H509.268V153.894H524.037V106.481H535.596V96.3136H524.037V93.531C524.037 88.0726 525.429 87.2164 532.706 87.2164H535.596V76.2998H530.566C516.117 76.2998 509.268 78.5473 509.268 93.1029V96.3136Z" fill="black"/>
<path d="M550.471 172.623C564.812 172.623 567.809 170.054 574.552 152.181L595.636 96.3136H580.652L567.274 137.84L554.217 96.3136H538.056L560.103 153.679L559.461 155.285C557 161.385 554.752 161.278 549.829 161.278H544.264V172.623H550.471Z" fill="black"/>
<path d="M141.595 93.7798L111.675 50.7117C111.162 49.9743 110.078 49.9743 109.566 50.7117L79.6457 93.7798C79.4639 94.0403 79.1217 94.1307 78.8372 93.9908L32.2707 71.2312C31.3553 70.7833 30.3106 71.5337 30.4303 72.552L40.5217 158.437H40.5228C41.2681 165.865 72.3667 171.842 110.621 171.842C148.877 171.842 179.974 165.865 180.72 158.437H180.721L190.812 72.552C190.932 71.5326 189.887 70.7833 188.972 71.2312L142.404 93.9908C142.119 94.1297 141.775 94.0403 141.595 93.7798ZM168.28 149.609C168.234 150.002 167.855 150.261 167.476 150.159C154.74 146.723 134.02 144.487 110.62 144.487C87.2209 144.487 66.5003 146.722 53.7633 150.159C53.3848 150.261 53.0052 150.002 52.9592 149.609L46.3988 93.8541C46.3592 93.515 46.7057 93.2663 47.0105 93.4149L82.7617 110.888C83.3306 111.165 84.015 110.986 84.3775 110.464L110.272 73.1915C110.442 72.9471 110.802 72.9471 110.972 73.1915L136.865 110.465C137.228 110.987 137.912 111.165 138.481 110.889L174.232 93.4159C174.536 93.2674 174.883 93.516 174.844 93.8551L168.28 149.609Z" fill="#14141A"/>
<path d="M127.579 125.75C128.412 119.608 126.164 114.225 122.558 113.729C118.952 113.232 115.355 117.809 114.522 123.951C113.69 130.094 115.937 135.477 119.543 135.973C123.15 136.469 126.749 131.893 127.579 125.75Z" fill="#14141A"/>
<path d="M154.959 129.041C155.638 124.029 153.819 119.638 150.895 119.235C147.971 118.832 145.051 122.568 144.371 127.58C143.692 132.592 145.511 136.982 148.435 137.386C151.36 137.79 154.28 134.053 154.959 129.041Z" fill="#14141A"/>
</svg>
