<svg width="688" height="441" viewBox="0 0 688 441" fill="none" xmlns="http://www.w3.org/2000/svg">
<path d="M594.207 138.906H566.65V87.5564H512.792V60H594.207V138.906Z" fill="#231F20"/>
<path d="M132.975 381H93V126.619H132.975V235.642H178.404V126.619H219.107V381H178.404V271.978H132.975V381Z" fill="#231F20"/>
<path d="M235.091 298.506L307.771 126.619H351.377V298.506H370.277V334.849H351.377V381H311.409V334.849H235.091V298.506ZM311.409 298.506V204.381L271.799 298.506H311.409Z" fill="#231F20"/>
<path d="M518.764 126.619L476.974 250.175L521.673 381H481.684L448.724 280.342L415.911 381H376.315L421.008 250.175L379.217 126.619H418.82L448.724 219.928L479.868 126.619H518.764Z" fill="#231F20"/>
</svg>
