<?xml version="1.0" standalone="no"?>
<!DOCTYPE svg PUBLIC "-//W3C//DTD SVG 20010904//EN"
 "http://www.w3.org/TR/2001/REC-SVG-20010904/DTD/svg10.dtd">
<svg version="1.0" xmlns="http://www.w3.org/2000/svg"
 width="500.000000pt" height="500.000000pt" viewBox="0 0 500.000000 500.000000"
 preserveAspectRatio="xMidYMid meet">
<metadata>
Created by potrace 1.14, written by Peter Selinger 2001-2017
</metadata>
<g transform="translate(0.000000,500.000000) scale(0.100000,-0.100000)"
fill="#000000" stroke="none">
<path d="M3728 3555 c-3 -6 -24 -68 -47 -140 -148 -462 -213 -654 -224 -657
-6 -3 -103 -4 -215 -4 l-202 1 -16 -40 c-8 -23 -16 -48 -18 -55 -2 -8 -6 -22
-9 -30 -28 -70 -35 -105 -21 -110 10 -4 600 -5 651 -1 6 1 30 61 54 134 23 72
45 135 49 140 3 4 26 -56 50 -133 31 -97 49 -140 60 -141 8 0 77 -1 153 -1 76
-1 135 -4 130 -8 -4 -4 -59 -44 -121 -90 -110 -80 -113 -83 -106 -114 3 -17 9
-35 12 -41 4 -5 7 -14 9 -20 1 -5 15 -50 31 -100 16 -49 28 -91 27 -93 -2 -2
-43 27 -91 63 -49 37 -101 74 -116 83 -16 9 -28 20 -28 24 0 7 -138 -88 -177
-122 -7 -5 -16 -10 -22 -10 -5 0 -11 -4 -13 -8 -1 -5 -85 -68 -184 -140 -159
-115 -187 -139 -193 -162 0 -3 -26 -79 -56 -170 -30 -90 -55 -168 -55 -173 0
-6 45 24 105 71 6 4 42 30 80 57 39 27 77 55 85 62 14 12 124 91 170 123 12 8
72 52 133 97 62 46 115 83 118 83 4 0 85 -57 180 -126 96 -70 221 -161 279
-202 58 -42 107 -78 110 -81 20 -23 129 -89 125 -77 -3 9 -8 24 -12 34 -3 9
-7 22 -9 27 -1 6 -37 116 -79 245 -42 129 -81 251 -87 270 -6 19 -15 41 -21
48 -5 6 -7 12 -4 12 3 0 -7 37 -22 83 l-28 82 102 75 c56 41 113 83 126 93 13
9 94 68 179 130 151 108 203 147 226 166 5 4 20 14 32 20 12 6 22 15 22 19 0
4 -189 7 -419 6 -231 -1 -423 2 -428 5 -5 3 -37 94 -72 201 -161 496 -198 604
-203 595z"/>
<path d="M445 3057 c-2 -7 -24 -77 -50 -157 -25 -80 -48 -152 -52 -160 -3 -8
-7 -17 -8 -20 -13 -49 -178 -559 -186 -575 -8 -17 1 -39 46 -117 30 -53 55
-99 55 -103 0 -3 8 -14 17 -25 17 -17 38 -18 314 -18 l296 0 56 176 c31 97 54
178 52 181 -2 3 -91 6 -199 5 -108 0 -196 3 -196 6 0 4 12 40 26 81 14 41 26
79 28 84 3 19 89 280 93 285 4 5 273 10 273 6 0 -2 -9 -28 -20 -60 l-19 -56
207 2 c114 2 205 5 203 8 -2 3 1 15 8 28 7 13 14 31 16 40 2 9 31 100 64 201
34 101 61 187 61 192 0 13 -1081 9 -1085 -4z"/>
<path d="M1675 3057 c-3 -7 -23 -70 -45 -142 -23 -71 -47 -149 -55 -171 -7
-23 -10 -46 -5 -50 4 -5 21 -34 37 -64 17 -30 40 -73 53 -95 62 -109 160 -285
160 -288 0 -1 -154 -3 -342 -3 l-342 0 -58 -175 c-31 -96 -57 -177 -57 -180
-1 -5 79 -12 119 -10 8 0 228 1 488 2 l473 1 11 26 c5 15 11 32 12 37 1 6 15
47 30 92 15 45 28 86 28 90 0 5 4 14 10 21 6 6 8 12 5 12 -4 0 0 18 8 39 l14
40 -81 143 c-44 79 -96 172 -116 208 -19 36 -41 74 -49 85 -7 11 -13 22 -13
25 0 3 90 6 201 5 122 0 204 4 209 10 7 9 60 167 105 312 l13 41 -405 0 c-299
0 -405 -3 -408 -11z"/>
<path d="M2619 3032 c-7 -20 -14 -41 -15 -47 -1 -5 -19 -62 -40 -125 -21 -63
-39 -117 -39 -120 -26 -97 -52 -152 -72 -149 -10 0 -78 1 -151 0 l-134 -1 25
-42 c13 -24 38 -68 55 -98 16 -30 47 -84 67 -120 21 -36 38 -78 38 -95 0 -16
-23 -100 -52 -185 -28 -85 -51 -158 -51 -162 0 -9 18 -9 492 -8 l337 1 43 32
c24 18 53 39 65 47 12 8 67 48 122 88 l100 73 39 122 c22 67 43 132 46 145 l7
22 -202 -2 -203 -3 -25 -80 -26 -80 -136 -1 -136 0 7 25 c10 31 95 295 143
441 19 58 50 155 70 215 19 61 38 117 42 126 5 14 -15 16 -199 17 l-204 2 -13
-38z"/>
<path d="M658 1780 c-9 -23 -55 -161 -62 -185 -2 -5 -6 -17 -9 -25 -14 -39
-37 -115 -37 -125 0 -7 30 -11 90 -12 l89 0 11 30 c15 45 14 47 -35 47 -49 0
-53 8 -32 50 10 20 20 25 51 25 35 1 39 4 51 38 14 40 13 41 -38 38 -24 -1
-27 2 -23 24 7 39 13 43 62 43 25 0 48 2 50 5 3 2 7 20 10 38 l6 34 -87 0
c-84 0 -88 -1 -97 -25z"/>
<path d="M1041 1799 c-53 -20 -92 -97 -76 -148 3 -12 23 -37 43 -57 31 -30 35
-38 26 -62 -5 -15 -18 -28 -27 -30 -15 -3 -18 2 -15 29 3 32 2 33 -35 34 -41
1 -47 -5 -63 -70 -9 -37 26 -65 84 -65 88 0 150 51 159 131 4 40 1 48 -30 79
-52 53 -60 74 -38 94 15 14 21 15 27 4 5 -7 7 -21 6 -30 -3 -15 4 -18 38 -18
34 0 42 4 50 25 12 31 8 61 -8 77 -15 15 -108 19 -141 7z"/>
<path d="M1370 1803 c0 -1 -21 -67 -46 -145 -26 -79 -52 -161 -59 -184 l-13
-41 46 1 45 1 22 65 22 65 53 7 c62 7 87 30 112 98 43 119 32 134 -97 135 -47
0 -85 -1 -85 -2z m102 -68 c12 -13 -15 -85 -34 -91 -11 -3 -21 -4 -23 -2 -1 1
4 24 13 51 13 42 29 57 44 42z"/>
<path d="M1780 1788 c-41 -25 -57 -52 -96 -172 -40 -125 -41 -139 -13 -167 19
-19 30 -21 86 -16 79 6 113 32 138 107 1 3 4 12 8 20 19 50 53 167 51 180 0 8
-2 22 -2 31 -4 40 -117 51 -172 17z m76 -80 c-4 -13 -8 -27 -10 -33 -2 -5 -11
-38 -21 -72 -20 -70 -51 -111 -68 -94 -8 8 -3 36 17 99 37 113 43 122 68 122
16 0 19 -4 14 -22z"/>
<path d="M2141 1796 c-4 -6 -32 -85 -61 -176 -29 -91 -55 -170 -57 -176 -2 -6
14 -10 41 -10 47 0 58 11 70 71 7 35 24 73 37 80 21 14 27 -16 12 -64 -25 -78
-24 -84 23 -86 l41 -2 22 75 c13 42 21 87 17 102 -3 19 0 33 10 41 37 31 61
121 37 141 -18 15 -181 18 -192 4z m104 -67 c10 -11 -17 -67 -35 -72 -25 -6
-30 11 -14 50 12 28 33 37 49 22z"/>
<path d="M2496 1770 l-14 -35 29 -3 c16 -2 29 -4 29 -5 0 -1 -20 -65 -45 -142
-25 -77 -45 -143 -45 -146 0 -3 19 -5 42 -5 l43 1 48 148 c48 145 49 147 78
147 23 0 32 6 40 27 5 14 8 31 6 37 -2 6 -40 11 -100 11 l-97 1 -14 -36z"/>
<path d="M2891 1792 c-38 -21 -71 -73 -71 -113 0 -27 30 -73 62 -97 32 -23 17
-82 -20 -82 -9 0 -12 10 -10 32 3 31 2 32 -35 33 -41 1 -45 -3 -61 -67 -14
-61 72 -89 162 -53 36 15 69 54 77 93 2 9 4 22 5 27 6 26 -3 44 -45 89 -36 40
-42 53 -34 68 9 16 13 19 37 18 4 -1 6 -12 5 -25 -2 -23 2 -25 38 -25 43 0 58
19 55 70 -2 48 -100 67 -165 32z"/>
</g>
</svg>
